<?xml version="1.0" encoding="UTF-8" standalone="no"?>
<svg
   xmlns:dc="http://purl.org/dc/elements/1.1/"
   xmlns:cc="http://creativecommons.org/ns#"
   xmlns:rdf="http://www.w3.org/1999/02/22-rdf-syntax-ns#"
   xmlns:svg="http://www.w3.org/2000/svg"
   xmlns="http://www.w3.org/2000/svg"
   xmlns:sodipodi="http://sodipodi.sourceforge.net/DTD/sodipodi-0.dtd"
   xmlns:inkscape="http://www.inkscape.org/namespaces/inkscape"
   width="250"
   height="38"
   version="1.1"
   viewBox="0 0 250 38"
   id="svg2"
   inkscape:version="0.91 r13725"
   sodipodi:docname="logo.svg">
  <metadata
     id="metadata17">
    <rdf:RDF>
      <cc:Work
         rdf:about="">
        <dc:format>image/svg+xml</dc:format>
        <dc:type
           rdf:resource="http://purl.org/dc/dcmitype/StillImage" />
      </cc:Work>
    </rdf:RDF>
  </metadata>
  <defs
     id="defs15" />
  <sodipodi:namedview
     pagecolor="#ffffff"
     bordercolor="#666666"
     borderopacity="1"
     objecttolerance="10"
     gridtolerance="10"
     guidetolerance="10"
     inkscape:pageopacity="0"
     inkscape:pageshadow="2"
     inkscape:window-width="1239"
     inkscape:window-height="713"
     id="namedview13"
     showgrid="false"
     inkscape:zoom="3.184"
     inkscape:cx="158.21331"
     inkscape:cy="19.575937"
     inkscape:window-x="0"
     inkscape:window-y="0"
     inkscape:window-maximized="0"
     inkscape:current-layer="svg2" />
  <rect
     id="backgroundrect"
     width="100%"
     height="100%"
     x="0"
     y="0"
     fill="#ffffff"
     stroke="none" />
  <path
     d="M 1.5292969 1.1503906 C 3.0092969 2.6403906 5.8290625 3.450625 5.7890625 5.890625 C 6.0390625 9.980625 5.9492969 14.100391 5.2792969 18.150391 C 4.4592969 18.450391 3.6403125 18.760313 2.8203125 19.070312 C 6.8803125 21.790312 5.8907812 26.919844 5.8007812 31.089844 C 5.8207812 33.539844 2.9902344 34.390625 1.4902344 35.890625 C 7.8502344 35.250625 14.220313 34.689453 20.570312 33.939453 C 18.950313 33.289453 17.319453 32.659297 15.689453 32.029297 L 15.660156 23.150391 C 23.360156 22.100391 31.959141 24.330625 38.869141 19.890625 C 41.999141 18.130625 44.040937 14.099219 42.210938 10.699219 C 39.530937 6.0992188 34.020938 4.1109375 28.960938 3.7109375 C 19.810938 2.9509375 10.669297 2.0503906 1.5292969 1.1503906 z M 15.650391 9.6308594 C 21.150391 10.090859 26.799453 9.6601562 32.189453 10.910156 C 34.739453 11.630156 34.389375 15.269219 31.859375 15.699219 C 26.499375 16.269219 21.069687 15.669375 15.679688 15.859375 C 15.669688 13.779375 15.660391 11.710859 15.650391 9.6308594 z "
     id="P" />
  <path
     d="M 42.720703 4.8203125 C 44.380703 5.6303125 46.039219 6.4304687 47.699219 7.2304688 C 47.739219 10.180469 47.869687 13.120547 47.679688 16.060547 C 47.879688 17.740547 46.109844 18.340234 45.089844 19.240234 C 49.219844 21.190234 47.400703 26.169063 47.720703 29.789062 C 46.060703 30.579062 44.390469 31.360156 42.730469 32.160156 C 49.370469 31.820156 56.020625 31.519219 62.640625 30.949219 C 61.030625 30.359219 59.409062 29.790703 57.789062 29.220703 C 57.789062 26.730703 57.799844 24.230234 57.839844 21.740234 C 62.869844 21.860234 65.789844 26.429063 69.589844 29.039062 C 69.059844 29.489062 67.990938 30.380078 67.460938 30.830078 C 74.480937 30.340078 81.530781 30.419609 88.550781 29.849609 C 86.070781 29.239609 83.469375 28.990469 81.109375 27.980469 C 78.169375 26.300469 75.690469 23.960703 72.980469 21.970703 C 76.780469 21.370703 80.940703 20.589688 83.720703 17.679688 C 85.280703 16.109687 85.669219 13.529766 84.199219 11.759766 C 81.379219 8.0697656 76.480547 6.8007031 72.060547 6.4707031 C 62.270547 6.0107031 52.500703 5.3803125 42.720703 4.8203125 z M 57.800781 11.359375 C 63.140781 11.849375 68.569141 11.269219 73.869141 12.199219 C 75.389141 12.379219 75.839844 14.189844 76.839844 15.089844 C 70.789844 17.549844 64.129063 16.029922 57.789062 16.419922 C 57.789062 14.739922 57.790781 13.049375 57.800781 11.359375 z "
     id="R" />
  <path
     d="M 113.51172 7.1367188 C 110.45175 7.1696533 107.39414 7.4066406 104.40039 7.7597656 C 99.070391 8.7097656 93.249687 10.290156 89.679688 14.660156 C 87.419687 17.480156 88.339844 21.750859 91.089844 23.880859 C 95.579844 27.480859 101.4193 28.909063 107.0293 29.539062 C 116.0293 30.209062 125.55953 29.929766 133.76953 25.759766 C 136.46953 24.349766 139.42047 22.229453 139.73047 18.939453 C 139.94047 14.979453 136.28961 12.369609 133.09961 10.849609 C 126.98773 7.9827344 120.24366 7.0642627 113.51172 7.1367188 z M 114.92188 12.492188 C 119.25449 12.564941 123.55312 13.541016 127.10938 16.009766 C 129.31937 17.449766 128.5507 20.340938 126.4707 21.460938 C 120.4907 25.000937 112.95984 24.999297 106.33984 23.529297 C 103.59984 22.699297 99.559609 21.429219 99.599609 17.949219 C 100.92961 14.969219 104.32023 13.920937 107.24023 13.210938 C 109.71148 12.730937 112.3223 12.448535 114.92188 12.492188 z "
     id="O" />
  <path
     fill="#366fa5"
     d=" M 193.48 7.47 C 192.95 13.05 195.14 19.65 191.22 24.363 C 186 29.667 178.06 30.76 170.95 30.746 C 162.69 30.55 153.72 29.33 147.2 23.816 C 143.1 20.136 145.22 14.08 144.7 9.285 C 142.98 8.73 141.25 8.206 139.52 7.644 C 146.22 7.386 152.92 7.035 159.62 7.293 C 157.96 7.894 156.29 8.48 154.62 9.066 C 155.01 13.26 152.83 19.105 157.08 21.863 C 162.14 24.785 168.31 25.254 174.02 24.597 C 177.41 23.996 181.35 23.01 183.2 19.793 C 183.71 15.847 183.35 11.847 183.38 7.871 C 181.69 7.5035 180.01 7.144 178.34 6.7535 C 185.19 5.566 192.17 5.73 199.09 5.347 L 193.48 7.47 Z"
     class=""
     id="U"
     fill-opacity="1" />
  <path
     fill="#366fa5"
     d=" M 227.73 3.02 C 234.71 2.6 241.63 1.34 248.63 1.39 C 245.55 2.95 241.74 3.55 239.62 6.53 C 236.29 10.64 232.72 14.56 229.13 18.45 C 232.89 22.57 236.59 26.75 240.14 31.05 C 242.23 33.64 245.76 34.11 248.6 35.52 C 241.63 35.78 234.74 34.31 227.79 34 C 228.36 33.55 229.48 32.64 230.05 32.19 C 227.82 29.66 225.55 27.17 223.22 24.73 C 220.94 26.85 218.69 29 216.44 31.14 C 217.04 31.64 218.23 32.65 218.82 33.16 C 211.82 32.55 204.78 32.38 197.81 31.45 C 200.74 30.59 204.22 30.77 206.59 28.57 C 210.25 25.34 213.82 21.99 217.25 18.51 C 213.35 14.75 209.62 10.79 205.32 7.49 C 201.66 5.51 198.55 5.84 195.87 6.54 L 199.09 5.34 C 205.7 4.71 212.32 4.3 218.94 3.86 C 218.3 4.35 217.02 5.32 216.37 5.8 C 218.74 7.89 221 10.1 223.23 12.34 C 225.49 9.85 227.74 7.34 230.04 4.88 C 229.27 4.26 228.5 3.64 227.73 3.02 Z"
     class=""
     id="X"
     fill-opacity="1" />
</svg>
