<svg xmlns="http://www.w3.org/2000/svg" width="250" height="38" viewBox="0 0 250 38">
<path fill="#366fa5" class="prxLogo" d="M1.53 1.15c1.48 1.49 4.3 2.3 4.26 4.74.25 4.09.16 8.21-.51 12.26-.82.3-1.64.61-2.46.92 4.06 2.72 3.07 7.85 2.98 12.02.02 2.45-2.81 3.3-4.31 4.8 6.36-.64 12.73-1.2 19.08-1.95-1.62-.65-3.25-1.28-4.88-1.91l-.03-8.88c7.7-1.05 16.3 1.18 23.21-3.26 3.13-1.76 5.17-5.79 3.34-9.19-2.68-4.6-8.19-6.59-13.25-6.99-9.15-.76-18.29-1.66-27.43-2.56zm14.12 8.48c5.5.46 11.15.03 16.54 1.28 2.55.72 2.2 4.36-.33 4.79-5.36.57-10.79-.03-16.18.16l-.03-6.23z"/>
<path fill="#366fa5" class="prxLogo" d="M 42.720703 4.8203125 C 44.380703 5.6303125 46.039219 6.4304688 47.699219 7.2304688 C 47.739219 10.180469 47.869688 13.120547 47.679688 16.060547 C 47.879688 17.740547 46.109844 18.340234 45.089844 19.240234 C 49.219844 21.190234 47.400703 26.169062 47.720703 29.789062 C 46.060703 30.579062 44.390469 31.360156 42.730469 32.160156 C 49.370469 31.820156 56.020625 31.519219 62.640625 30.949219 C 61.030625 30.359219 59.409063 29.790703 57.789062 29.220703 C 57.789062 26.730703 57.799844 24.230234 57.839844 21.740234 C 62.869844 21.860234 65.789844 26.429063 69.589844 29.039062 C 69.059844 29.489062 67.990938 30.380078 67.460938 30.830078 C 74.480937 30.340078 81.530781 30.419609 88.550781 29.849609 C 86.070781 29.239609 83.469375 28.990469 81.109375 27.980469 C 78.169375 26.300469 75.690469 23.960703 72.980469 21.970703 C 76.780469 21.370703 80.940703 20.589688 83.720703 17.679688 C 85.280703 16.109687 85.669219 13.529766 84.199219 11.759766 C 81.379219 8.0697656 76.480547 6.8007031 72.060547 6.4707031 C 62.270547 6.0107031 52.500703 5.3803125 42.720703 4.8203125 z M 57.800781 11.359375 C 63.140781 11.849375 68.569141 11.269219 73.869141 12.199219 C 75.389141 12.379219 75.839844 14.189844 76.839844 15.089844 C 70.789844 17.549844 64.129062 16.029922 57.789062 16.419922 C 57.789062 14.739922 57.790781 13.049375 57.800781 11.359375 z "/>
<path fill="#366fa5" class="prxLogo" d="M 113.51172 7.1367188 C 110.45172 7.1697188 107.39439 7.4067656 104.40039 7.7597656 C 99.070391 8.7097656 93.249687 10.290156 89.679688 14.660156 C 87.419687 17.480156 88.339844 21.750859 91.089844 23.880859 C 95.579844 27.480859 101.4193 28.909063 107.0293 29.539062 C 116.0293 30.209063 125.55953 29.929766 133.76953 25.759766 C 136.46953 24.349766 139.42047 22.229453 139.73047 18.939453 C 139.94047 14.979453 136.28961 12.369609 133.09961 10.849609 C 126.98761 7.9826094 120.24372 7.0637187 113.51172 7.1367188 z M 114.92188 12.492188 C 119.25387 12.565188 123.55237 13.541766 127.10938 16.009766 C 129.31937 17.449766 128.54875 20.340938 126.46875 21.460938 C 120.48875 25.000937 112.95984 24.999297 106.33984 23.529297 C 103.59984 22.699297 99.559609 21.429219 99.599609 17.949219 C 100.92961 14.969219 104.31828 13.920938 107.23828 13.210938 C 109.70828 12.730937 112.32187 12.450188 114.92188 12.492188 z "/>
<path fill="#366fa5" class="prxLogo" d="M193.48 7.47c-.53 5.58 1.66 12.18-2.26 16.893-5.22 5.304-13.16 6.397-20.27 6.383-8.26-.196-17.23-1.416-23.75-6.93-4.1-3.68-1.98-9.736-2.5-14.53-1.72-.556-3.45-1.08-5.18-1.642 6.7-.258 13.4-.61 20.1-.35-1.66.6-3.33 1.186-5 1.772.39 4.194-1.79 10.04 2.46 12.797 5.06 2.922 11.23 3.39 16.94 2.734 3.39-.6 7.33-1.587 9.18-4.804.51-3.946.15-7.946.18-11.922-1.69-.367-3.37-.726-5.04-1.117 6.85-1.187 13.83-1.023 20.75-1.406l-5.61 2.123z"/>
<path fill="#366fa5" class="prxLogo" d="M227.73 3.02c6.98-.42 13.9-1.68 20.9-1.63-3.08 1.56-6.89 2.16-9.01 5.14-3.33 4.11-6.9 8.03-10.49 11.92 3.76 4.12 7.46 8.3 11.01 12.6 2.09 2.59 5.62 3.06 8.46 4.47-6.97.26-13.86-1.21-20.81-1.52.57-.45 1.69-1.36 2.26-1.81-2.23-2.53-4.5-5.02-6.83-7.46-2.28 2.12-4.53 4.27-6.78 6.41.6.5 1.79 1.51 2.38 2.02-7-.61-14.04-.78-21.01-1.71 2.93-.86 6.41-.68 8.78-2.88 3.66-3.23 7.23-6.58 10.66-10.06-3.9-3.76-7.63-7.72-11.93-11.02-3.66-1.98-6.77-1.65-9.45-.95l3.22-1.2c6.61-.63 13.23-1.04 19.85-1.48-.64.49-1.92 1.46-2.57 1.94 2.37 2.09 4.63 4.3 6.86 6.54 2.26-2.49 4.51-5 6.81-7.46l-2.31-1.86z"/>
</svg>
