<svg xmlns="http://www.w3.org/2000/svg" width="250" height="38" version="1.1">
<rect id="backgroundrect" width="100%" height="100%" x="0" y="0" fill="#ffffff" stroke="none"/>
<path fill="#366fa5" d=" M 1.53 1.15 C 10.67 2.05 19.81 2.95 28.96 3.71 C 34.02 4.11 39.53 6.10 42.21 10.70 C 44.04 14.10 42.00 18.13 38.87 19.89 C 31.96 24.33 23.36 22.10 15.66 23.15 C 15.67 26.11 15.68 29.07 15.69 32.03 C 17.32 32.66 18.95 33.29 20.57 33.94 C 14.22 34.69 7.85 35.25 1.49 35.89 C 2.99 34.39 5.82 33.54 5.80 31.09 C 5.89 26.92 6.88 21.79 2.82 19.07 C 3.64 18.76 4.46 18.45 5.28 18.15 C 5.95 14.10 6.04 9.98 5.79 5.89 C 5.83 3.45 3.01 2.64 1.53 1.15 Z" id="P"/>
<path fill="#ffffff" d=" M 15.65 9.63 C 21.15 10.09 26.80 9.66 32.19 10.91 C 34.74 11.63 34.39 15.27 31.86 15.70 C 26.50 16.27 21.07 15.67 15.68 15.86 C 15.67 13.78 15.66 11.71 15.65 9.63 Z" id="P_bg"/>
<path fill="#366fa5" d=" M 42.72 4.82 C 52.50 5.38 62.27 6.01 72.06 6.47 C 76.48 6.80 81.38 8.07 84.20 11.76 C 85.67 13.53 85.28 16.11 83.72 17.68 C 80.94 20.59 76.78 21.37 72.98 21.97 C 75.69 23.96 78.17 26.30 81.11 27.98 C 83.47 28.99 86.07 29.24 88.55 29.85 C 81.53 30.42 74.48 30.34 67.46 30.83 C 67.99 30.38 69.06 29.49 69.59 29.04 C 65.79 26.43 62.87 21.86 57.84 21.74 C 57.80 24.23 57.79 26.73 57.79 29.22 C 59.41 29.79 61.03 30.36 62.64 30.95 C 56.02 31.52 49.37 31.82 42.73 32.16 C 44.39 31.36 46.06 30.58 47.72 29.79 C 47.40 26.17 49.22 21.19 45.09 19.24 C 46.11 18.34 47.88 17.74 47.68 16.06 C 47.87 13.12 47.74 10.18 47.70 7.23 C 46.04 6.43 44.38 5.63 42.72 4.82 Z" id="R"/>
<path fill="#ffffff" d=" M 57.80 11.36 C 63.14 11.85 68.57 11.27 73.87 12.20 C 75.39 12.38 75.84 14.19 76.84 15.09 C 70.79 17.55 64.13 16.03 57.79 16.42 C 57.79 14.74 57.79 13.05 57.80 11.36 Z" id="R_bg"/>
<path fill="#366fa5" d=" M 104.40 7.76 C 113.98 6.63 124.21 6.68 133.10 10.85 C 136.29 12.37 139.94 14.98 139.73 18.94 C 139.42 22.23 136.47 24.35 133.77 25.76 C 125.56 29.93 116.03 30.21 107.03 29.54 C 101.42 28.91 95.58 27.48 91.09 23.88 C 88.34 21.75 87.42 17.48 89.68 14.66 C 93.25 10.29 99.07 8.71 104.40 7.76 Z" id="O"/>
<path fill="#ffffff" d=" M 107.24 13.21 C 113.83 11.93 121.42 12.06 127.11 16.01 C 129.32 17.45 128.55 20.34 126.47 21.46 C 120.49 25.00 112.96 25.00 106.34 23.53 C 103.60 22.70 99.56 21.43 99.60 17.95 C 100.93 14.97 104.32 13.92 107.24 13.21 Z" id="O_bg"/>
<path fill="#366fa5" d=" M 193.48 7.47 C 192.95 13.05 195.14 19.65 191.22 24.363 C 186 29.667 178.06 30.76 170.95 30.746 C 162.69 30.55 153.72 29.33 147.2 23.816 C 143.1 20.136 145.22 14.08 144.7 9.285 C 142.98 8.73 141.25 8.206 139.52 7.644 C 146.22 7.386 152.92 7.035 159.62 7.293 C 157.96 7.894 156.29 8.48 154.62 9.066 C 155.01 13.26 152.83 19.105 157.08 21.863 C 162.14 24.785 168.31 25.254 174.02 24.597 C 177.41 23.996 181.35 23.01 183.2 19.793 C 183.71 15.847 183.35 11.847 183.38 7.871 C 181.69 7.5035 180.01 7.144 178.34 6.7535 C 185.19 5.566 192.17 5.73 199.09 5.347 L 193.48 7.47 Z" class="" id="U" fill-opacity="1"/>
<path fill="#366fa5" d=" M 227.73 3.02 C 234.71 2.6 241.63 1.34 248.63 1.39 C 245.55 2.95 241.74 3.55 239.62 6.53 C 236.29 10.64 232.72 14.56 229.13 18.45 C 232.89 22.57 236.59 26.75 240.14 31.05 C 242.23 33.64 245.76 34.11 248.6 35.52 C 241.63 35.78 234.74 34.31 227.79 34 C 228.36 33.55 229.48 32.64 230.05 32.19 C 227.82 29.66 225.55 27.17 223.22 24.73 C 220.94 26.85 218.69 29 216.44 31.14 C 217.04 31.64 218.23 32.65 218.82 33.16 C 211.82 32.55 204.78 32.38 197.81 31.45 C 200.74 30.59 204.22 30.77 206.59 28.57 C 210.25 25.34 213.82 21.99 217.25 18.51 C 213.35 14.75 209.62 10.79 205.32 7.49 C 201.66 5.51 198.55 5.84 195.87 6.54 L 199.09 5.34 C 205.7 4.71 212.32 4.3 218.94 3.86 C 218.3 4.35 217.02 5.32 216.37 5.8 C 218.74 7.89 221 10.1 223.23 12.34 C 225.49 9.85 227.74 7.34 230.04 4.88 C 229.27 4.26 228.5 3.64 227.73 3.02 Z" class="" id="X" fill-opacity="1"/>
</svg>
